<?xml version="1.0" encoding="UTF-8" standalone="no"?>
<!-- Created with Inkscape (http://www.inkscape.org/) -->

<svg
   xmlns:dc="http://purl.org/dc/elements/1.1/"
   xmlns:cc="http://creativecommons.org/ns#"
   xmlns:rdf="http://www.w3.org/1999/02/22-rdf-syntax-ns#"
   xmlns:svg="http://www.w3.org/2000/svg"
   xmlns="http://www.w3.org/2000/svg"
   xmlns:sodipodi="http://sodipodi.sourceforge.net/DTD/sodipodi-0.dtd"
   xmlns:inkscape="http://www.inkscape.org/namespaces/inkscape"
   width="210mm"
   height="297mm"
   viewBox="0 0 744.09448819 1052.3622047"
   id="svg2"
   version="1.1"
   inkscape:version="0.91 r13725"
   sodipodi:docname="localizer_icons.svg">
  <defs
     id="defs4" />
  <sodipodi:namedview
     id="base"
     pagecolor="#ffffff"
     bordercolor="#666666"
     borderopacity="1.0"
     inkscape:pageopacity="0.0"
     inkscape:pageshadow="2"
     inkscape:zoom="45.254832"
     inkscape:cx="28.431116"
     inkscape:cy="5.2791765"
     inkscape:document-units="px"
     inkscape:current-layer="layer1"
     showgrid="false"
     inkscape:window-width="1366"
     inkscape:window-height="745"
     inkscape:window-x="-8"
     inkscape:window-y="-8"
     inkscape:window-maximized="1"
     showguides="false" />
  <metadata
     id="metadata7">
    <rdf:RDF>
      <cc:Work
         rdf:about="">
        <dc:format>image/svg+xml</dc:format>
        <dc:type
           rdf:resource="http://purl.org/dc/dcmitype/StillImage" />
        <dc:title />
      </cc:Work>
    </rdf:RDF>
  </metadata>
  <g
     inkscape:label="Layer 1"
     inkscape:groupmode="layer"
     id="layer1">
    <g
       id="ExtractStringCmd"
       inkscape:export-xdpi="90"
       inkscape:export-ydpi="90"
       transform="translate(-222.47791,180.10844)">
      <text
         transform="scale(1.0002752,0.99972486)"
         sodipodi:linespacing="125%"
         id="text4155"
         y="871.19525"
         x="228.70174"
         style="font-style:normal;font-weight:normal;font-size:22.93797874px;line-height:125%;font-family:sans-serif;letter-spacing:0px;word-spacing:0px;fill:#444444;fill-opacity:1;stroke:none;stroke-width:1px;stroke-linecap:butt;stroke-linejoin:miter;stroke-opacity:1"
         xml:space="preserve"><tspan
           style="font-style:normal;font-variant:normal;font-weight:normal;font-stretch:normal;font-family:Calibri;-inkscape-font-specification:Calibri;fill:#444444;fill-opacity:1"
           y="871.19525"
           x="228.70174"
           id="tspan4157"
           sodipodi:role="line">S</tspan></text>
      <path
         sodipodi:nodetypes="cccccccscc"
         style="fill:#00539c;fill-opacity:1;fill-rule:evenodd;stroke:none;stroke-width:1px;stroke-linecap:butt;stroke-linejoin:miter;stroke-opacity:1"
         d="m 227.71236,861.43853 -5.23445,3.87032 4.92772,3.60691 -0.2004,-2.87941 c 0.73472,0.0834 2.58922,-0.21731 4.26039,1.18272 1.6491,1.19929 0.50182,5.03469 0.50182,5.03469 l 2.37166,-0.37054 c 0,0 1.09021,-4.75121 -0.97212,-6.22001 -2.14066,-1.52459 -5.33724,-1.18651 -6.12446,-1.27153 z"
         id="path4154"
         inkscape:connector-curvature="0" />
    </g>
    <g
       id="ManageStringsCmd"
       transform="translate(-227.84348,179.33876)">
      <path
         inkscape:connector-curvature="0"
         id="rect4148"
         d="m 244.56556,857.74552 0,14.55584 10.63512,0 0,-11.23239 -3.32194,-3.32345 -7.31318,0 z"
         style="fill:none;fill-opacity:1;stroke:#444444;stroke-width:1.4441607;stroke-miterlimit:4;stroke-dasharray:none;stroke-opacity:1" />
      <path
         inkscape:connector-curvature="0"
         id="rect4150"
         d="m 251.85985,857.45753 0,3.57451 3.68945,0 -3.57289,-3.57451 -0.11656,0 z"
         style="fill:none;fill-opacity:1;stroke:#444444;stroke-width:0.86795521;stroke-linejoin:bevel;stroke-miterlimit:4;stroke-dasharray:none;stroke-opacity:1" />
      <rect
         y="862.83398"
         x="243.84348"
         height="7.2879767"
         width="16.000284"
         id="rect4158"
         style="fill:#daab5d;fill-opacity:1;stroke:none;stroke-width:0.80000001;stroke-miterlimit:4;stroke-dasharray:none;stroke-opacity:1" />
      <text
         transform="scale(0.67406975,1.483526)"
         sodipodi:linespacing="125%"
         id="text4164"
         y="585.81067"
         x="364.32693"
         style="font-style:normal;font-weight:normal;font-size:5.39566374px;line-height:125%;font-family:sans-serif;letter-spacing:0px;word-spacing:0px;fill:#834a07;fill-opacity:1;stroke:none;stroke-width:1px;stroke-linecap:butt;stroke-linejoin:miter;stroke-opacity:1"
         xml:space="preserve"><tspan
           style="font-style:normal;font-variant:normal;font-weight:bold;font-stretch:normal;font-family:sans-serif;-inkscape-font-specification:'sans-serif Bold'"
           y="585.81067"
           x="364.32693"
           id="tspan4166"
           sodipodi:role="line">&lt;     &gt;</tspan></text>
      <text
         transform="scale(0.99977404,1.000226)"
         sodipodi:linespacing="125%"
         id="text4160"
         y="869.47485"
         x="248.86438"
         style="font-style:normal;font-weight:normal;font-size:8.78259659px;line-height:125%;font-family:sans-serif;letter-spacing:0px;word-spacing:0px;fill:#834a07;fill-opacity:1;stroke:none;stroke-width:1px;stroke-linecap:butt;stroke-linejoin:miter;stroke-opacity:1"
         xml:space="preserve"><tspan
           y="869.47485"
           x="248.86438"
           id="tspan4162"
           sodipodi:role="line">S</tspan></text>
    </g>
    <g
       id="edit"
       transform="translate(-45.604064,-16.706995)"
       inkscape:export-xdpi="90"
       inkscape:export-ydpi="90">
      <path
         inkscape:connector-curvature="0"
         id="rect4156"
         d="m 63.078292,1029.5441 c -0.63115,-0.6311 -1.64763,-0.6304 -2.278777,8e-4 l -1.925246,1.9252 c 0.04516,0.036 0.09252,0.068 0.134472,0.11 l 4.208631,4.2086 1.912948,-1.913 c 0.631146,-0.6311 0.631915,-1.6476 7.65e-4,-2.2787 l -2.052822,-2.0529 z"
         style="fill:#838383;fill-opacity:1;stroke:none;stroke-width:0.25752309;stroke-linejoin:bevel;stroke-miterlimit:4;stroke-dasharray:none;stroke-opacity:1" />
      <path
         id="rect4164"
         d="m 57.719682,1032.6246 -12.115618,12.1157 0.0059,4.3289 4.324965,0 12.115618,-12.1156 z"
         style="fill:#838383;fill-opacity:1;stroke:none;stroke-width:0.32811201;stroke-linejoin:miter;stroke-miterlimit:4;stroke-dasharray:none;stroke-opacity:1"
         inkscape:connector-curvature="0"
         sodipodi:nodetypes="cccccc" />
    </g>
    <g
       id="icon"
       transform="translate(-855.22574,2374.4155)"
       inkscape:export-xdpi="90"
       inkscape:export-ydpi="90">
      <circle
         r="500"
         cy="-822.05334"
         cx="355.22574"
         id="circle4325"
         style="fill:#2a7fff;fill-opacity:1;stroke:none;stroke-width:2;stroke-linejoin:miter;stroke-miterlimit:4;stroke-dasharray:none;stroke-opacity:1" />
      <path
         inkscape:connector-curvature="0"
         id="path4327"
         d="m 209.7907,-1234.1319 c -1.5777,-0.022 -3.1717,0.06 -4.7792,0.2246 -39.0562,57.7283 -85.5573,12.7095 -134.005101,1.1796 A 500,500 0 0 0 -139.6458,-889.37521 c 9.9896,0.62832 20.0661,0.64093 29.4956,0.38031 63.929199,25.88893 116.6105994,59.82942 179.406599,67.53407 -23.9502,38.2261 -60.3090996,117.46172 10.1633,151.0604 53.855501,-1.03651 35.400201,36.5834 58.347301,74.96194 29.3748,54.35487 28.3998,120.00752 66.5878,171.23983 88.3056,54.2761 -25.1681,-60.12456 21.7436,-95.20177 66.7053,2.74181 19.2576,-79.20244 75.4719,-87.87346 -11.3002,-51.82323 83.4498,-65.81593 48.7936,-128.9927 -59.2991,-30.29778 -90.6838,-97.3865 -159.4823,-106.30265 -39.3391,34.51504 -28.4688,-14.99912 -68.5321,-16.68805 -36.623901,35.5084 -82.394901,24.32301 -86.067201,-28.95974 -48.4567,26.2354 -75.6409,-45.25818 -4.0445,-43.08982 52.4423,32.42965 102.651601,3.76748 106.047801,-59.02146 -11.3931,-79.06439 101.1945,-36.47459 92.3586,-95.27099 22.2441,22.8745 124.5321,13.0281 68.1865,-25.6845 -12.7064,-80.1934 -80.9066,-9.7292 -128.8113,-34.3958 -19.8584,29.9143 -31.0245,49.4867 -63.6924,15.7115 -2.0018,-83.7518 73.9955,-15.9096 113.3978,-41.0589 72.1887,19.1199 38.9767,-62.7597 -9.9341,-63.1049 z"
         style="fill:#5fd35f;fill-opacity:1;fill-rule:evenodd;stroke:none;stroke-width:1px;stroke-linecap:butt;stroke-linejoin:miter;stroke-opacity:1" />
      <path
         inkscape:connector-curvature="0"
         id="path4329"
         d="m 532.217,-1140.0841 c -72.8832,7.3996 63.2049,69.6272 0,0 z"
         style="fill:#5fd35f;fill-opacity:1;fill-rule:evenodd;stroke:none;stroke-width:1px;stroke-linecap:butt;stroke-linejoin:miter;stroke-opacity:1" />
      <path
         inkscape:connector-curvature="0"
         id="path4331"
         d="m 550.4692,-1142.2965 c 32.3487,-60.1254 77.6213,60.6978 18.075,31.5985 -2.3389,-12.1162 -4.4714,-26.9766 -18.075,-31.5985 z"
         style="fill:#5fd35f;fill-opacity:1;fill-rule:evenodd;stroke:none;stroke-width:1px;stroke-linecap:butt;stroke-linejoin:miter;stroke-opacity:1" />
      <path
         inkscape:connector-curvature="0"
         id="path4333"
         d="m 627.8847,-1240.6438 c -22.2595,47.106 45.0564,89.446 55.1325,110.0319 -37.1621,7.5039 -72.3148,15.0143 -64.1548,58.2349 -58.5383,-74.4584 -106.7149,72.41838 -17.4918,55.8803 41.9891,-39.3756 96.6019,-71.1865 94.7612,11.1569 49.275,21.5199 56.358,-28.956 16.6319,-46.7843 43.6812,-41.4823 58.6978,76.37367 112.3909,60.66791 A 500,500 0 0 0 627.8847,-1240.6438 Z"
         style="fill:#5fd35f;fill-opacity:1;fill-rule:evenodd;stroke:none;stroke-width:1px;stroke-linecap:butt;stroke-linejoin:miter;stroke-opacity:1" />
      <path
         inkscape:connector-curvature="0"
         id="path4335"
         d="m 622.2285,-963.68893 c -25.1367,-0.0664 -51.2639,7.30929 -77.4595,20.98319 -55.1549,0.95553 -20.0411,77.95044 -49.9518,106.77787 -12.5093,59.58297 38.1341,133.17898 102.6082,95.65996 69.9155,-56.85885 143.4549,60.62964 82.5932,102.39225 -2.5407,48.32832 38.617,89.74447 36.8197,137.7385 3.5944,4.12832 7.2995,7.64071 11.0922,10.62544 A 500,500 0 0 0 855.225,-822.05287 500,500 0 0 0 838.8655,-947.50641 c -51.6126,-0.32345 -92.8396,-23.29225 -136.3255,14.36748 -24.6037,-20.84447 -51.8232,-30.47589 -80.3115,-30.55 z"
         style="fill:#5fd35f;fill-opacity:1;fill-rule:evenodd;stroke:none;stroke-width:1px;stroke-linecap:butt;stroke-linejoin:miter;stroke-opacity:1" />
      <path
         inkscape:connector-curvature="0"
         id="path4337"
         d="m 266.8694,-1051.933 c 76.4799,-31.3604 1.3067,86.55646 0,0 z"
         style="fill:#5fd35f;fill-opacity:1;fill-rule:evenodd;stroke:none;stroke-width:1px;stroke-linecap:butt;stroke-linejoin:miter;stroke-opacity:1" />
      <path
         inkscape:connector-curvature="0"
         id="path4339"
         d="m 233.6261,-1035.1157 c 78.433,-4.2126 -15.9,79.2281 0,0 z"
         style="fill:#5fd35f;fill-opacity:1;fill-rule:evenodd;stroke:none;stroke-width:1px;stroke-linecap:butt;stroke-linejoin:miter;stroke-opacity:1" />
    </g>
    <g
       id="AddResourceCmd"
       inkscape:export-xdpi="90"
       inkscape:export-ydpi="90"
       transform="translate(-8.0000007,0)">
      <text
         xml:space="preserve"
         style="font-style:normal;font-weight:normal;font-size:22.93797874px;line-height:125%;font-family:sans-serif;letter-spacing:0px;word-spacing:0px;fill:#444444;fill-opacity:1;stroke:none;stroke-width:1px;stroke-linecap:butt;stroke-linejoin:miter;stroke-opacity:1"
         x="44.392399"
         y="1051.1405"
         id="text4159"
         sodipodi:linespacing="125%"
         transform="scale(1.0002752,0.99972487)"><tspan
           sodipodi:role="line"
           id="tspan4161"
           x="44.392399"
           y="1051.1405"
           style="font-style:normal;font-variant:normal;font-weight:normal;font-stretch:normal;font-family:Calibri;-inkscape-font-specification:Calibri;fill:#444444;fill-opacity:1">R</tspan></text>
      <text
         transform="scale(1.0002752,0.99972487)"
         sodipodi:linespacing="125%"
         id="text4167"
         y="1053.8615"
         x="39.204983"
         style="font-style:normal;font-weight:normal;font-size:22.93797874px;line-height:125%;font-family:sans-serif;letter-spacing:0px;word-spacing:0px;fill:#008000;fill-opacity:1;stroke:none;stroke-width:1px;stroke-linecap:butt;stroke-linejoin:miter;stroke-opacity:1"
         xml:space="preserve"><tspan
           style="font-style:normal;font-variant:normal;font-weight:normal;font-stretch:normal;font-family:Calibri;-inkscape-font-specification:Calibri;fill:#008000;fill-opacity:1"
           y="1053.8615"
           x="39.204983"
           id="tspan4169"
           sodipodi:role="line">+</tspan></text>
    </g>
  </g>
</svg>
